<svg height="512pt" viewBox="-40 0 512 512" width="512pt" xmlns="http://www.w3.org/2000/svg"><path d="m335.65625 95.1875v-63.625c0-17.402344-14.160156-31.5625-31.5625-31.5625h-240.46875c-17.402344 0-31.5625 14.160156-31.5625 31.5625v144.28125h15.03125v-144.28125c0-9.117188 7.414062-16.53125 16.53125-16.53125h213.597656c-2.972656 4.808594-4.691406 10.472656-4.691406 16.53125v192.875h-133.652344l-32.0625-32.0625h-106.816406v239.46875h207.90625v-15.03125h-192.875v-209.40625h85.558594l32.0625 32.0625h187.972656v48.59375h15.03125v-95.6875h-48.09375v-97.1875zm-15.03125-63.625v48.59375h-33.0625v-48.59375c0-9.117188 7.414062-16.53125 16.53125-16.53125s16.53125 7.414062 16.53125 16.53125zm0 175.84375v17.03125h-33.0625v-17.03125zm0 0"/><path d="m79.65625 407.796875h-39.578125v-39.578125h15.03125v24.546875h24.546875zm0 0"/><g fill="#00e9cc"><path d="m127.75 304.59375h16.03125v15.03125h-16.03125zm0 0"/><path d="m159.8125 304.59375h16.03125v15.03125h-16.03125zm0 0"/><path d="m191.875 304.59375h16.03125v15.03125h-16.03125zm0 0"/></g><path d="m71.640625 40.078125h176.34375v15.03125h-176.34375zm0 0"/><path d="m71.640625 80.15625h176.34375v15.03125h-176.34375zm0 0"/><path d="m71.640625 120.234375h176.34375v15.03125h-176.34375zm0 0"/><path d="m71.640625 160.3125h176.34375v15.03125h-176.34375zm0 0"/><path d="m328.140625 512c-57.179687 0-103.703125-46.519531-103.703125-103.703125 0-57.179687 46.523438-103.703125 103.703125-103.703125 57.183594 0 103.703125 46.523438 103.703125 103.703125 0 57.183594-46.519531 103.703125-103.703125 103.703125zm0-192.375c-48.894531 0-88.671875 39.777344-88.671875 88.671875s39.777344 88.671875 88.671875 88.671875 88.671875-39.777344 88.671875-88.671875-39.777344-88.671875-88.671875-88.671875zm0 0"/><path d="m328.140625 336.65625c-39.5 0-71.640625 32.140625-71.640625 71.640625 0 39.503906 32.140625 71.640625 71.640625 71.640625 39.503906 0 71.640625-32.136719 71.640625-71.640625 0-39.5-32.136719-71.640625-71.640625-71.640625zm0 0" fill="#00e9cc"/><path d="m346.875 437.660156-26.25-26.25v-43.191406h15.03125v36.964844l21.84375 21.847656zm0 0"/></svg>